<?xml version="1.0" standalone="no"?>
<!DOCTYPE svg PUBLIC "-//W3C//DTD SVG 20010904//EN"
 "http://www.w3.org/TR/2001/REC-SVG-20010904/DTD/svg10.dtd">
<svg version="1.0" xmlns="http://www.w3.org/2000/svg"
 width="298.000000pt" height="444.000000pt" viewBox="0 0 298.000000 444.000000"
 preserveAspectRatio="xMidYMid meet">
<metadata>
Created by potrace 1.16, written by Peter Selinger 2001-2019
</metadata>
<g transform="translate(0.000000,444.000000) scale(0.100000,-0.100000)"
fill="#000000" stroke="none">
<path d="M1493 4429 c-225 -15 -480 -81 -714 -183 -362 -160 -601 -414 -719
-764 -42 -125 -60 -245 -60 -394 0 -334 124 -626 369 -869 161 -160 330 -264
684 -423 328 -148 597 -296 725 -399 116 -94 258 -294 290 -411 22 -81 27
-248 9 -341 -20 -105 -66 -224 -119 -305 -42 -64 -136 -165 -231 -247 -57 -49
-59 -74 -9 -84 90 -18 301 36 487 126 164 79 284 163 411 290 256 253 364 518
364 890 0 214 -35 363 -126 535 -168 316 -404 500 -1064 830 -412 206 -659
347 -753 430 -102 90 -168 255 -168 425 -1 296 199 497 529 535 180 20 363
-20 525 -117 110 -65 295 -247 371 -365 69 -107 119 -214 152 -327 31 -107 54
-247 54 -328 l0 -63 85 0 85 0 0 673 0 673 -85 33 c-366 143 -734 204 -1092
180z"/>
<path d="M382 1817 c-162 -175 -233 -290 -288 -472 -26 -84 -28 -102 -28 -270
0 -156 3 -191 22 -263 82 -300 273 -548 519 -671 118 -59 222 -83 384 -88 285
-10 473 58 649 236 224 226 288 548 158 793 -38 72 -123 166 -186 207 -83 53
-96 33 -33 -52 173 -231 157 -470 -44 -673 -122 -123 -255 -168 -416 -139
-353 62 -710 325 -805 593 -58 164 -10 373 117 507 123 130 300 150 478 54 30
-16 55 -28 56 -26 1 1 12 17 25 35 19 28 20 36 9 46 -12 11 -483 297 -499 303
-3 1 -56 -53 -118 -120z"/>
</g>
</svg>
